<svg width="100%" height="100%" viewBox="0 0 1440 800" preserveAspectRatio="none" xmlns="http://www.w3.org/2000/svg">
  <defs>
    <linearGradient id="grad1" x1="0%" y1="0%" x2="100%" y2="100%">
      <stop offset="0%" style="stop-color:#17324D;stop-opacity:0.1" />
      <stop offset="100%" style="stop-color:#17324D;stop-opacity:0" />
    </linearGradient>
    <linearGradient id="grad2" x1="100%" y1="0%" x2="0%" y2="100%">
      <stop offset="0%" style="stop-color:#B89855;stop-opacity:0.1" />
      <stop offset="100%" style="stop-color:#B89855;stop-opacity:0" />
    </linearGradient>
  </defs>
  
  <!-- Organic filled waves -->
  <path d="M-100,300 C300,-100 600,600 1100,200 C1400,-100 1600,200 1600,200 L1600,900 L-100,900 Z" fill="url(#grad1)"/>
  <path d="M-100,400 C400,-50 500,500 1200,300 C1500,200 1600,400 1600,400 L1600,900 L-100,900 Z" fill="url(#grad2)"/>
  
  <!-- Flowing contour lines -->
  <path d="M-100,200 C300,500 600,100 1000,400 C1300,600 1600,200 1600,200" fill="none" stroke="#17324D" stroke-width="2" opacity="0.15"/>
  <path d="M-100,220 C310,520 610,120 1010,420 C1310,620 1600,220 1600,220" fill="none" stroke="#17324D" stroke-width="1.5" opacity="0.1"/>
  <path d="M-100,240 C320,540 620,140 1020,440 C1320,640 1600,240 1600,240" fill="none" stroke="#17324D" stroke-width="1" opacity="0.08"/>

  <!-- Additional flowing lines -->
  <path d="M-100,700 C200,500 500,800 1000,500 C1400,300 1600,600 1600,600" fill="none" stroke="#B89855" stroke-width="2" opacity="0.15"/>
  <path d="M-100,720 C210,520 510,820 1010,520 C1410,320 1600,620 1600,620" fill="none" stroke="#B89855" stroke-width="1.5" opacity="0.1"/>
</svg>
